<svg width="1024" height="1024" viewBox="0 0 1024 1024" fill="none" xmlns="http://www.w3.org/2000/svg">
<rect width="1024" height="1024" rx="12" fill="white"/>
<path d="M836.58 349.628L795.16 360.86L783.928 319.441C781.12 309.613 787.438 299.784 796.564 296.976L837.984 285.744L849.216 327.163C852.024 336.991 846.408 346.82 836.58 349.628Z" fill="#00A9FA"/>
<path d="M880.105 273.809L838.686 285.042L822.539 225.37L882.211 209.223L893.444 250.643C895.55 261.173 889.933 271.001 880.105 273.809Z" fill="#F39D0C"/>
<path d="M822.539 225.37L762.867 241.516L751.635 200.097C748.827 190.269 755.145 180.44 764.271 177.632L805.691 166.4L822.539 225.37Z" fill="#00A9FA"/>
<path d="M801.479 377.007L875.893 653.603C881.509 673.26 869.575 694.321 849.216 699.235L268.644 855.084H870.277C890.635 855.084 907.484 838.235 907.484 817.877V414.214C907.484 393.855 890.635 377.007 870.277 377.007H801.479Z" fill="#F39D0C"/>
<path d="M764.271 354.542L724.256 205.713L142.982 361.562C123.325 367.178 111.391 387.537 116.305 407.194L230.033 832.619L828.857 671.856C838.686 669.048 845.004 659.219 842.196 648.689L764.271 354.542Z" fill="#00A9FA"/>
<path d="M724.256 205.713L460.296 771.543L753.039 692.917L724.256 205.713Z" fill="#00BBF9"/>
<path d="M392.2 294.87L577.534 519.517L724.256 205.713L392.2 294.87Z" fill="#00A3E0"/>
<path d="M460.296 375.603L183.699 657.113L244.073 334.183L392.2 294.87L460.296 375.603Z" fill="#00BBF9"/>
<path d="M183.699 657.113H513.65L577.534 519.517L460.296 375.602L183.699 657.113Z" fill="#00A9FA"/>
<path d="M183.699 657.113L469.422 704.149L460.296 771.543L230.735 832.619L183.699 657.113Z" fill="#00BBF9"/>
<path d="M183.699 657.113L460.296 771.543L469.422 704.149L183.699 657.113Z" fill="#00A3E0"/>
<path d="M753.039 692.917L537.518 605.866L460.296 771.543L753.039 692.917Z" fill="#00A9FA"/>
<path d="M537.518 605.866L469.422 704.149L183.699 657.113L537.518 605.866Z" fill="#00BBF9"/>
<path d="M537.518 605.866L587.362 737.144L753.039 692.917L537.518 605.866Z" fill="#00BBF9"/>
<path d="M230.735 832.619L307.255 708.361L460.296 771.543L230.735 832.619Z" fill="#00A9FA"/>
<path d="M709.514 465.461L737.595 437.381L724.256 205.713L632.291 400.875L709.514 465.461Z" fill="#00BBF9"/>
<path d="M753.039 692.917L740.403 464.759L606.316 458.441L559.983 614.992L753.039 692.917Z" fill="#00A3E0"/>
</svg>
