<?xml version="1.0" encoding="UTF-8" standalone="no"?>
<svg
   xmlns:dc="http://purl.org/dc/elements/1.1/"
   xmlns:cc="http://creativecommons.org/ns#"
   xmlns:rdf="http://www.w3.org/1999/02/22-rdf-syntax-ns#"
   xmlns:svg="http://www.w3.org/2000/svg"
   xmlns="http://www.w3.org/2000/svg"
   xmlns:sodipodi="http://sodipodi.sourceforge.net/DTD/sodipodi-0.dtd"
   xmlns:inkscape="http://www.inkscape.org/namespaces/inkscape"
   width="210mm"
   height="297mm"
   viewBox="0 0 210 297"
   version="1.1"
   id="svg1288"
   inkscape:version="1.0.1 (3bc2e813f5, 2020-09-07)"
   sodipodi:docname="drawing-3.svg">
  <defs
     id="defs1282" />
  <sodipodi:namedview
     id="base"
     pagecolor="#ffffff"
     bordercolor="#666666"
     borderopacity="1.0"
     inkscape:pageopacity="0.0"
     inkscape:pageshadow="2"
     inkscape:zoom="0.35"
     inkscape:cx="400"
     inkscape:cy="1017.1429"
     inkscape:document-units="mm"
     inkscape:current-layer="layer1"
     inkscape:document-rotation="0"
     showgrid="false"
     inkscape:window-width="1920"
     inkscape:window-height="1054"
     inkscape:window-x="1920"
     inkscape:window-y="0"
     inkscape:window-maximized="1" />
  <metadata
     id="metadata1285">
    <rdf:RDF>
      <cc:Work
         rdf:about="">
        <dc:format>image/svg+xml</dc:format>
        <dc:type
           rdf:resource="http://purl.org/dc/dcmitype/StillImage" />
        <dc:title></dc:title>
      </cc:Work>
    </rdf:RDF>
  </metadata>
  <g
     inkscape:label="Layer 1"
     inkscape:groupmode="layer"
     id="layer1">
    <g
       id="g42"
       transform="matrix(1.8477271,0,0,-1.6786924,322.38225,179.63154)">
      <path
         d="m 0,0 -14.598,-3.911 -3.911,14.597 c -0.918,3.427 1.115,6.949 4.542,7.867 L 0.63,22.465 4.542,7.867 C 5.46,4.44 3.426,0.918 0,0"
         style="fill:#00a9fa;fill-opacity:1;fill-rule:nonzero;stroke:none"
         id="path44" />
    </g>
    <g
       id="g46"
       transform="matrix(1.8477271,0,0,-1.6786924,350.76336,135.13649)">
      <path
         d="M 0,0 -14.598,-3.911 -20.172,16.891 0.63,22.465 4.542,7.867 C 5.46,4.44 3.427,0.918 0,0"
         style="fill:#f39d0c;fill-opacity:1;fill-rule:nonzero;stroke:none"
         id="path48" />
    </g>
    <g
       id="g50"
       transform="matrix(1.8477271,0,0,-1.6786924,313.24988,106.55524)">
      <path
         d="m 0,0 -20.802,-5.574 -3.912,14.598 c -0.918,3.427 1.115,6.949 4.542,7.867 l 14.598,3.911 z"
         style="fill:#00a9fa;fill-opacity:1;fill-rule:nonzero;stroke:none"
         id="path52" />
    </g>
    <g
       id="g54"
       transform="matrix(1.8477271,0,0,-1.6786924,299.73837,195.90951)">
      <path
         d="m 0,0 25.959,-96.885 c 1.871,-6.975 -2.27,-14.147 -9.247,-16.016 l -203.378,-54.495 H 23.887 c 7.222,0 13.078,5.854 13.078,13.078 v 141.24 C 36.965,-5.855 31.109,0 23.887,0 Z"
         style="fill:#f39d0c;fill-opacity:1;fill-rule:nonzero;stroke:none"
         id="path56" />
    </g>
    <path
       d="M 275.57525,182.73827 249.74221,95.150779 -126.04482,186.62944 c -12.88787,3.13918 -20.54118,15.17875 -17.08595,26.88932 L -69.332525,463.74468 318.12656,369.4223 c 6.44671,-1.56793 10.26784,-7.58605 8.54392,-13.44128 z"
       style="fill:#00a9fa;fill-opacity:1;fill-rule:nonzero;stroke:none;stroke-width:1.76118"
       id="path60" />
    <g
       id="g62"
       transform="matrix(1.8477271,0,0,-1.6786924,249.73885,95.151019)">
      <path
         d="m 0,0 -92.464,-198.077 102.536,27.474 z"
         style="fill:#00bbf9;fill-opacity:1;fill-rule:nonzero;stroke:none"
         id="path64" />
    </g>
    <g
       id="g66"
       transform="matrix(1.8477271,0,0,-1.6786924,35.134645,147.39381)">
      <path
         d="M 0,0 64.898,-78.665 116.147,31.121 Z"
         style="fill:#00a3e0;fill-opacity:1;fill-rule:nonzero;stroke:none"
         id="path68" />
    </g>
    <g
       id="g70"
       transform="matrix(1.8477271,0,0,-1.6786924,79.230645,195.20782)">
      <path
         d="M 0,0 -96.881,-98.483 -75.85,14.555 -23.869,28.483 Z"
         style="fill:#00bbf9;fill-opacity:1;fill-rule:nonzero;stroke:none"
         id="path72" />
    </g>
    <g
       id="g74"
       transform="matrix(1.8477271,0,0,-1.6786924,-99.772547,360.53114)">
      <path
         d="m 0,0 h 115.363 l 22.548,48.301 -41.03,50.182 z"
         style="fill:#00a9fa;fill-opacity:1;fill-rule:nonzero;stroke:none"
         id="path76" />
    </g>
    <g
       id="g78"
       transform="matrix(1.8477271,0,0,-1.6786924,-99.772547,360.53114)">
      <path
         d="M 0,0 99.881,-16.517 96.696,-39.989 16.475,-61.484 Z"
         style="fill:#00bbf9;fill-opacity:1;fill-rule:nonzero;stroke:none"
         id="path80" />
    </g>
    <g
       id="g82"
       transform="matrix(1.8477271,0,0,-1.6786924,-99.772547,360.53114)">
      <path
         d="m 0,0 96.696,-39.989 3.185,23.472 z"
         style="fill:#00a3e0;fill-opacity:1;fill-rule:nonzero;stroke:none"
         id="path84" />
    </g>
    <g
       id="g86"
       transform="matrix(1.8477271,0,0,-1.6786924,268.35012,381.541)">
      <path
         d="m 0,0 -75.489,30.467 -27.047,-57.941 z"
         style="fill:#00a9fa;fill-opacity:1;fill-rule:nonzero;stroke:none"
         id="path88" />
    </g>
    <g
       id="g90"
       transform="matrix(1.8477271,0,0,-1.6786924,128.86977,330.39676)">
      <path
         d="m 0,0 -23.862,-34.468 -99.881,16.517 z"
         style="fill:#00bbf9;fill-opacity:1;fill-rule:nonzero;stroke:none"
         id="path92" />
    </g>
    <g
       id="g94"
       transform="matrix(1.8477271,0,0,-1.6786924,128.86977,330.39676)">
      <path
         d="m 0,0 17.625,-45.971 57.864,15.504 z"
         style="fill:#00bbf9;fill-opacity:1;fill-rule:nonzero;stroke:none"
         id="path96" />
    </g>
    <g
       id="g98"
       transform="matrix(1.8477271,0,0,-1.6786924,-69.326655,463.74459)">
      <path
         d="M 0,0 26.597,43.672 80.221,21.495 Z"
         style="fill:#00a9fa;fill-opacity:1;fill-rule:nonzero;stroke:none"
         id="path100" />
    </g>
    <g
       id="g102"
       transform="matrix(1.8477271,0,0,-1.6786924,240.07989,247.89073)">
      <path
         d="M 0,0 10.021,9.886 5.232,90.987 -26.834,22.672 Z"
         style="fill:#00bbf9;fill-opacity:1;fill-rule:nonzero;stroke:none"
         id="path104" />
    </g>
    <g
       id="g106"
       transform="matrix(1.8477271,0,0,-1.6786924,268.35012,381.541)">
      <path
         d="m 0,0 -4.351,79.999 -47,2 -16.275,-54.705 z"
         style="fill:#00a3e0;fill-opacity:1;fill-rule:nonzero;stroke:none"
         id="path108" />
    </g>
    <g
       id="g110"
       transform="matrix(1.8477271,0,0,-1.6786924,43.698835,268.00718)">
      <path
         d="m 0,0 c -6.619,6.618 -6.619,17.349 0,23.967 l 22.45,22.45 V 46.416 L 67.001,90.968 22.449,180.552 -4.936,125.487 V 74.065 l -17.08,17.079 -39.368,-79.161 54.383,-54.383 24.7,24.701 z"
         style="fill:#f39d0c;fill-opacity:1;fill-rule:nonzero;stroke:none"
         id="path112" />
    </g>
    <g
       id="g114"
       transform="matrix(1.8477271,0,0,-1.6786924,240.07989,247.89073)">
      <path
         d="M 0,0 -36.097,72.583 -79.04,29.64 -61.377,11.978 c 6.616,-6.616 6.619,-17.342 0.006,-23.961 l -47.133,-47.18 24.671,-24.67 z"
         style="fill:#ffffff;fill-opacity:1;fill-rule:nonzero;stroke:none"
         id="path116" />
    </g>
  </g>
</svg>
