<?xml version="1.0" encoding="iso-8859-1"?>
<!-- Generator: Adobe Illustrator 19.0.0, SVG Export Plug-In . SVG Version: 6.00 Build 0)  -->
<svg version="1.1" id="Layer_1" xmlns="http://www.w3.org/2000/svg" xmlns:xlink="http://www.w3.org/1999/xlink" x="0px" y="0px"
	 viewBox="0 0 512 512" style="enable-background:new 0 0 512 512;" xml:space="preserve">
<g>
	<g>
		<path d="M500.581,182.912L392.275,74.606c-7.364-7.363-17.154-11.418-27.566-11.418s-20.203,4.054-27.567,11.418
			c-7.363,7.364-11.418,17.154-11.418,27.566c0,10.413,4.055,20.203,11.419,27.567l41.753,41.753H234.97
			c-21.497,0-38.985,17.489-38.985,38.985c0,21.497,17.489,38.985,38.985,38.985h143.925l-41.755,41.753
			c-7.363,7.364-11.418,17.154-11.418,27.567c0,10.412,4.055,20.203,11.419,27.567c7.364,7.362,17.154,11.417,27.566,11.417
			c10.413,0,20.204-4.055,27.567-11.419l108.306-108.305c7.363-7.364,11.418-17.154,11.418-27.566
			C512,200.067,507.945,190.277,500.581,182.912z M486.158,223.621L377.853,331.927c-3.512,3.511-8.179,5.444-13.144,5.444
			s-9.633-1.934-13.144-5.443c-3.511-3.512-5.444-8.179-5.444-13.144s1.933-9.633,5.443-13.144l59.166-59.165
			c2.917-2.917,3.79-7.305,2.211-11.115s-5.299-6.296-9.423-6.296H234.97c-10.249,0-18.587-8.338-18.587-18.587
			c0-10.249,8.338-18.587,18.587-18.587v0h168.549c4.126,0,7.844-2.484,9.423-6.296c1.579-3.811,0.706-8.198-2.211-11.115
			l-59.166-59.165c-3.511-3.511-5.444-8.179-5.444-13.144s1.934-9.633,5.443-13.143c3.512-3.511,8.18-5.444,13.145-5.444
			s9.633,1.934,13.144,5.444l108.305,108.305c3.511,3.512,5.444,8.18,5.444,13.144C491.603,215.442,489.669,220.11,486.158,223.621z
			"/>
	</g>
</g>
<g>
	<g>
		<path d="M423.028,261.337c-3.984-3.983-10.442-3.983-14.425,0l-1.728,1.728c-3.983,3.984-3.983,10.442,0,14.425
			c1.991,1.992,4.602,2.987,7.212,2.987c2.61,0,5.221-0.995,7.213-2.987l1.728-1.728
			C427.011,271.778,427.011,265.32,423.028,261.337z"/>
	</g>
</g>
<g>
	<g>
		<path d="M481.475,202.891c-3.984-3.983-10.442-3.983-14.425,0l-38.367,38.367c-3.983,3.984-3.983,10.442,0,14.425
			c1.991,1.992,4.602,2.987,7.212,2.987s5.221-0.995,7.213-2.987l38.367-38.367C485.458,213.332,485.458,206.873,481.475,202.891z"
			/>
	</g>
</g>
<g>
	<g>
		<path d="M277.03,262.534H133.105l41.755-41.753c7.363-7.364,11.418-17.153,11.418-27.566s-4.055-20.203-11.418-27.567
			c-7.363-7.363-17.154-11.418-27.567-11.418c-10.414,0-20.205,4.056-27.567,11.419L11.418,273.954
			C4.055,281.317,0,291.108,0,301.52c0,10.412,4.055,20.203,11.419,27.568l108.305,108.306c0.001,0,0.001,0,0.001,0
			c7.364,7.362,17.154,11.417,27.566,11.417c10.413,0,20.203-4.054,27.567-11.42c7.363-7.364,11.418-17.154,11.418-27.566
			c0-10.413-4.055-20.203-11.419-27.567l-41.753-41.753H277.03c21.497,0,38.985-17.489,38.985-38.985
			C316.015,280.022,298.527,262.534,277.03,262.534z M277.03,320.107H108.482c-4.126,0-7.844,2.484-9.423,6.296
			c-1.579,3.811-0.706,8.198,2.211,11.115l59.166,59.165c3.511,3.511,5.444,8.179,5.444,13.144c0,4.965-1.934,9.633-5.443,13.143
			c-3.512,3.511-8.181,5.444-13.145,5.444c-4.964,0-9.632-1.934-13.144-5.444L25.843,314.665c-3.511-3.513-5.444-8.18-5.444-13.145
			c0-4.964,1.934-9.632,5.443-13.143l108.306-108.306c3.511-3.51,8.178-5.443,13.143-5.443s9.633,1.933,13.144,5.443
			c3.511,3.512,5.444,8.18,5.444,13.144c0,4.964-1.933,9.632-5.443,13.143l-59.166,59.165c-2.917,2.917-3.79,7.305-2.211,11.115
			c1.579,3.81,5.299,6.296,9.423,6.296H277.03c10.249,0,18.587,8.338,18.587,18.587S287.279,320.107,277.03,320.107z"/>
	</g>
</g>
<g>
</g>
<g>
</g>
<g>
</g>
<g>
</g>
<g>
</g>
<g>
</g>
<g>
</g>
<g>
</g>
<g>
</g>
<g>
</g>
<g>
</g>
<g>
</g>
<g>
</g>
<g>
</g>
<g>
</g>
</svg>
