<svg width="152" height="140" viewBox="0 0 152 140" fill="none" xmlns="http://www.w3.org/2000/svg">
<path d="M137.385 18.2609H98.268L93.5385 8.41217C91.0422 3.22304 86.0378 0 80.4665 0H45.3895H35.0769H14.6154C6.55646 0 0 6.82652 0 15.2174V106.522V112.609V124.783C0 133.173 6.55646 140 14.6154 140H137.385C145.444 140 152 133.173 152 124.783V112.609V106.522V33.4783C152 25.0874 145.444 18.2609 137.385 18.2609ZM88.3091 11.133L91.732 18.2609H68.6105C65.2694 18.2609 62.2645 16.3252 60.7678 13.2148L58.4615 8.41217C58.0611 7.57826 57.5729 6.81435 57.0497 6.08696H80.4665C83.8075 6.08696 86.8125 8.02261 88.3091 11.133ZM137.385 133.913H14.6154C9.78062 133.913 5.84615 129.817 5.84615 124.783V124.703C8.29569 126.636 11.3123 127.826 14.6154 127.826H35.0769V124.783C35.0769 119.289 39.1634 118.696 40.9231 118.696C42.6828 118.696 46.7692 119.289 46.7692 124.783V127.826H105.231V124.783C105.231 119.289 109.317 118.696 111.077 118.696C112.837 118.696 116.923 119.289 116.923 124.783V127.826H137.385C140.688 127.826 143.704 126.636 146.154 124.703V124.783C146.154 129.817 142.219 133.913 137.385 133.913ZM146.154 112.609C146.154 117.643 142.219 121.739 137.385 121.739H122.471C121.34 116.17 117.043 112.609 111.077 112.609C105.111 112.609 100.811 116.17 99.6828 121.739H52.3172C51.186 116.17 46.8891 112.609 40.9231 112.609C34.9571 112.609 30.6572 116.17 29.5289 121.739H14.6154C9.78062 121.739 5.84615 117.643 5.84615 112.609V106.522V15.2174C5.84615 10.1835 9.78062 6.08696 14.6154 6.08696H35.0769H45.3895C48.7306 6.08696 51.7355 8.02261 53.2322 11.133L55.5385 15.9357C58.0348 21.1248 63.0391 24.3478 68.6105 24.3478H137.385C142.219 24.3478 146.154 28.4443 146.154 33.4783V106.522V112.609Z" fill="black"/>
<path d="M59.3891 69.25C60.6227 66.778 61.3333 63.976 61.3333 61V55C61.3333 45.073 53.5593 37 44 37C34.4407 37 26.6667 45.073 26.6667 55V61C26.6667 63.973 27.3773 66.775 28.6109 69.25C22.0011 74.302 18 82.351 18 91V97H70V91C70 82.351 65.9989 74.299 59.3891 69.25ZM32.4444 55C32.4444 48.382 37.6271 43 44 43C50.3729 43 55.5556 48.382 55.5556 55V61C55.5556 67.618 50.3729 73 44 73C37.6271 73 32.4444 67.618 32.4444 61V55ZM23.7778 91C23.7778 84.25 26.9122 77.971 32.092 74.044C35.2004 77.107 39.3864 79 44 79C48.6136 79 52.8024 77.107 55.9109 74.044C61.0849 77.971 64.2222 84.25 64.2222 91H23.7778Z" fill="black"/>
<path d="M123 64H88V70H123V64Z" fill="black"/>
<path d="M134 52H88V58H134V52Z" fill="black"/>
<path d="M134 40H88V46H134V40Z" fill="black"/>
<path d="M123 91C123 92.656 121.693 94 120.083 94H90.9167C89.3067 94 88 92.656 88 91V79C88 77.344 89.3067 76 90.9167 76H120.083C121.693 76 123 77.344 123 79V91Z" fill="black"/>
</svg>
