<svg width="357" height="357" viewBox="0 0 357 357" fill="none" xmlns="http://www.w3.org/2000/svg">
<path d="M219.176 8.95298C219.176 3.91693 223.09 0 228.122 0H259.992C298.572 0 329.883 31.3354 329.883 69.9451V115.27L341.624 103.519C344.979 100.161 350.57 100.161 354.484 103.519C357.839 106.876 357.839 112.472 354.484 116.389L327.646 143.248C325.969 144.926 323.732 146.045 321.496 146.045C319.259 146.045 317.023 144.926 315.345 143.248L288.507 116.389C285.153 113.031 285.153 107.436 288.507 103.519C291.862 100.161 297.453 100.161 301.367 103.519L313.109 115.27V69.9451C313.109 41.4075 289.626 17.9059 261.11 17.9059H229.24C223.09 17.9059 219.176 13.989 219.176 8.95298ZM0 166.19V10.0721C0 5.03605 3.91386 1.11912 8.94597 1.11912H164.941C169.973 1.11912 173.887 5.03605 173.887 10.0721V166.19C173.887 171.226 169.973 175.143 164.941 175.143H8.94597C3.91386 175.143 0 171.226 0 166.19ZM17.8919 157.237H155.995V19.0251H17.8919V157.237ZM56.4714 253.481C58.1488 255.16 60.3853 256.279 62.6218 256.279C64.8583 256.279 67.0947 255.16 68.7721 253.481C72.1269 250.124 72.1269 244.528 68.7721 240.611L41.9342 213.752C40.2569 212.074 38.0204 210.955 35.7839 210.955C33.5474 210.955 31.3109 212.074 29.6335 213.752L2.79561 240.611C-0.559123 243.969 -0.559123 249.564 2.79561 253.481C6.15035 256.839 11.7416 256.839 15.6554 253.481L27.397 241.73V287.055C27.397 325.665 58.7079 357 97.2874 357H129.157C134.19 357 138.103 353.083 138.103 348.047C138.103 343.011 134.19 339.094 129.157 339.094H97.2874C68.7721 339.094 45.289 315.592 45.289 287.055V241.73L56.4714 253.481ZM182.833 346.928V190.81C182.833 185.774 186.747 181.857 191.779 181.857H347.774C352.807 181.857 356.72 185.774 356.72 190.81V346.928C356.72 351.964 352.807 355.881 347.774 355.881H191.779C186.747 355.881 182.833 351.964 182.833 346.928ZM200.725 337.975H338.828V199.763H200.725V337.975Z" fill="black"/>
</svg>
