<?xml version="1.0" encoding="UTF-8" standalone="no"?>
<svg
   xmlns:dc="http://purl.org/dc/elements/1.1/"
   xmlns:cc="http://creativecommons.org/ns#"
   xmlns:rdf="http://www.w3.org/1999/02/22-rdf-syntax-ns#"
   xmlns:svg="http://www.w3.org/2000/svg"
   xmlns="http://www.w3.org/2000/svg"
   xmlns:sodipodi="http://sodipodi.sourceforge.net/DTD/sodipodi-0.dtd"
   xmlns:inkscape="http://www.inkscape.org/namespaces/inkscape"
   width="210mm"
   height="297mm"
   viewBox="0 0 210 297"
   version="1.1"
   id="svg1143"
   inkscape:version="1.0.1 (3bc2e813f5, 2020-09-07)"
   sodipodi:docname="drawing-4.svg">
  <defs
     id="defs1137" />
  <sodipodi:namedview
     id="base"
     pagecolor="#ffffff"
     bordercolor="#666666"
     borderopacity="1.0"
     inkscape:pageopacity="0.0"
     inkscape:pageshadow="2"
     inkscape:zoom="0.35"
     inkscape:cx="400"
     inkscape:cy="560"
     inkscape:document-units="mm"
     inkscape:current-layer="layer1"
     inkscape:document-rotation="0"
     showgrid="false"
     inkscape:window-width="1343"
     inkscape:window-height="908"
     inkscape:window-x="310"
     inkscape:window-y="88"
     inkscape:window-maximized="0" />
  <metadata
     id="metadata1140">
    <rdf:RDF>
      <cc:Work
         rdf:about="">
        <dc:format>image/svg+xml</dc:format>
        <dc:type
           rdf:resource="http://purl.org/dc/dcmitype/StillImage" />
        <dc:title></dc:title>
      </cc:Work>
    </rdf:RDF>
  </metadata>
  <g
     inkscape:label="Layer 1"
     inkscape:groupmode="layer"
     id="layer1">
    <g
       id="g42"
       transform="matrix(0.35277777,0,0,-0.35277777,149.4229,129.65797)"
       style="fill:#ffffff;fill-opacity:1">
      <path
         d="m 0,0 -14.598,-3.911 -3.911,14.597 c -0.918,3.427 1.115,6.949 4.542,7.867 L 0.63,22.465 4.542,7.867 C 5.46,4.44 3.426,0.918 0,0"
         style="fill:#ffffff;fill-opacity:1;fill-rule:nonzero;stroke:none"
         id="path44" />
    </g>
    <g
       id="g46"
       transform="matrix(0.35277777,0,0,-0.35277777,154.84273,120.30731)"
       style="fill:#ffffff;fill-opacity:1">
      <path
         d="M 0,0 -14.598,-3.911 -20.172,16.891 0.63,22.465 4.542,7.867 C 5.46,4.44 3.427,0.918 0,0"
         style="fill:#ffffff;fill-opacity:1;fill-rule:nonzero;stroke:none"
         id="path48" />
    </g>
    <g
       id="g50"
       transform="matrix(0.35277777,0,0,-0.35277777,147.68092,114.30095)"
       style="fill:#ffffff;fill-opacity:1">
      <path
         d="m 0,0 -20.802,-5.574 -3.912,14.598 c -0.918,3.427 1.115,6.949 4.542,7.867 l 14.598,3.911 z"
         style="fill:#ffffff;fill-opacity:1;fill-rule:nonzero;stroke:none"
         id="path52" />
    </g>
    <g
       id="g54"
       transform="matrix(0.35277777,0,0,-0.35277777,145.10088,133.07878)"
       style="fill:#ffffff;fill-opacity:1">
      <path
         d="m 0,0 25.959,-96.885 c 1.871,-6.975 -2.27,-14.147 -9.247,-16.016 l -203.378,-54.495 H 23.887 c 7.222,0 13.078,5.854 13.078,13.078 v 141.24 C 36.965,-5.855 31.109,0 23.887,0 Z"
         style="fill:#ffffff;fill-opacity:1;fill-rule:nonzero;stroke:none"
         id="path56" />
    </g>
    <g
       id="g58"
       transform="matrix(0.35277777,0,0,-0.35277777,140.48721,130.31082)"
       style="fill:#ffffff;fill-opacity:1">
      <path
         d="M 0,0 -13.981,52.176 -217.359,-2.318 c -6.975,-1.87 -11.117,-9.042 -9.247,-16.018 l 39.94,-149.06 209.695,56.188 c 3.489,0.934 5.557,4.519 4.624,8.007 z"
         style="fill:#ffffff;fill-opacity:1;fill-rule:nonzero;stroke:none"
         id="path60" />
    </g>
    <g
       id="g62"
       transform="matrix(0.35277777,0,0,-0.35277777,135.55503,111.90436)"
       style="fill:#ffffff;fill-opacity:1">
      <path
         d="m 0,0 -92.464,-198.077 102.536,27.474 z"
         style="fill:#ffffff;fill-opacity:1;fill-rule:nonzero;stroke:none"
         id="path64" />
    </g>
    <g
       id="g66"
       transform="matrix(0.35277777,0,0,-0.35277777,94.58077,122.88319)"
       style="fill:#ffffff;fill-opacity:1">
      <path
         d="M 0,0 64.898,-78.665 116.147,31.121 Z"
         style="fill:#ffffff;fill-opacity:1;fill-rule:nonzero;stroke:none"
         id="path68" />
    </g>
    <g
       id="g70"
       transform="matrix(0.35277777,0,0,-0.35277777,103.00112,132.93132)"
       style="fill:#ffffff;fill-opacity:1">
      <path
         d="M 0,0 -96.881,-98.483 -75.85,14.555 -23.869,28.483 Z"
         style="fill:#ffffff;fill-opacity:1;fill-rule:nonzero;stroke:none"
         id="path72" />
    </g>
    <g
       id="g74"
       transform="matrix(0.35277777,0,0,-0.35277777,68.823687,167.67408)"
       style="fill:#ffffff;fill-opacity:1">
      <path
         d="m 0,0 h 115.363 l 22.548,48.301 -41.03,50.182 z"
         style="fill:#ffffff;fill-opacity:1;fill-rule:nonzero;stroke:none"
         id="path76" />
    </g>
    <g
       id="g78"
       transform="matrix(0.35277777,0,0,-0.35277777,68.823687,167.67408)"
       style="fill:#ffffff;fill-opacity:1">
      <path
         d="M 0,0 99.881,-16.517 96.696,-39.989 16.475,-61.484 Z"
         style="fill:#ffffff;fill-opacity:1;fill-rule:nonzero;stroke:none"
         id="path80" />
    </g>
    <g
       id="g82"
       transform="matrix(0.35277777,0,0,-0.35277777,68.823687,167.67408)"
       style="fill:#ffffff;fill-opacity:1">
      <path
         d="m 0,0 96.696,-39.989 3.185,23.472 z"
         style="fill:#ffffff;fill-opacity:1;fill-rule:nonzero;stroke:none"
         id="path84" />
    </g>
    <g
       id="g86"
       transform="matrix(0.35277777,0,0,-0.35277777,139.10831,172.0893)"
       style="fill:#ffffff;fill-opacity:1">
      <path
         d="m 0,0 -75.489,30.467 -27.047,-57.941 z"
         style="fill:#ffffff;fill-opacity:1;fill-rule:nonzero;stroke:none"
         id="path88" />
    </g>
    <g
       id="g90"
       transform="matrix(0.35277777,0,0,-0.35277777,112.47754,161.34133)"
       style="fill:#ffffff;fill-opacity:1">
      <path
         d="m 0,0 -23.862,-34.468 -99.881,16.517 z"
         style="fill:#ffffff;fill-opacity:1;fill-rule:nonzero;stroke:none"
         id="path92" />
    </g>
    <g
       id="g94"
       transform="matrix(0.35277777,0,0,-0.35277777,112.47754,161.34133)"
       style="fill:#ffffff;fill-opacity:1">
      <path
         d="m 0,0 17.625,-45.971 57.864,15.504 z"
         style="fill:#ffffff;fill-opacity:1;fill-rule:nonzero;stroke:none"
         id="path96" />
    </g>
    <g
       id="g98"
       transform="matrix(0.35277777,0,0,-0.35277777,74.635559,189.36441)"
       style="fill:#ffffff;fill-opacity:1">
      <path
         d="M 0,0 26.597,43.672 80.221,21.495 Z"
         style="fill:#ffffff;fill-opacity:1;fill-rule:nonzero;stroke:none"
         id="path100" />
    </g>
    <g
       id="g102"
       transform="matrix(0.35277777,0,0,-0.35277777,133.70915,144.00265)"
       style="fill:#ffffff;fill-opacity:1">
      <path
         d="M 0,0 10.021,9.886 5.232,90.987 -26.834,22.672 Z"
         style="fill:#ffffff;fill-opacity:1;fill-rule:nonzero;stroke:none"
         id="path104" />
    </g>
    <g
       id="g106"
       transform="matrix(0.35277777,0,0,-0.35277777,139.10831,172.0893)"
       style="fill:#ffffff;fill-opacity:1">
      <path
         d="m 0,0 -4.351,79.999 -47,2 -16.275,-54.705 z"
         style="fill:#ffffff;fill-opacity:1;fill-rule:nonzero;stroke:none"
         id="path108" />
    </g>
    <g
       id="g110"
       transform="matrix(0.35277777,0,0,-0.35277777,96.215117,148.23013)"
       style="fill:#ffffff;fill-opacity:1">
      <path
         d="m 0,0 c -6.619,6.618 -6.619,17.349 0,23.967 l 22.45,22.45 V 46.416 L 67.001,90.968 22.449,180.552 -4.936,125.487 V 74.065 l -17.08,17.079 -39.368,-79.161 54.383,-54.383 24.7,24.701 z"
         style="fill:#ffffff;fill-opacity:1;fill-rule:nonzero;stroke:none"
         id="path112" />
    </g>
    <g
       id="g114"
       transform="matrix(0.35277777,0,0,-0.35277777,133.70915,144.00265)"
       style="fill:#ffffff;fill-opacity:1">
      <path
         d="M 0,0 -36.097,72.583 -79.04,29.64 -61.377,11.978 c 6.616,-6.616 6.619,-17.342 0.006,-23.961 l -47.133,-47.18 24.671,-24.67 z"
         style="fill:#ffffff;fill-opacity:1;fill-rule:nonzero;stroke:none"
         id="path116" />
    </g>
  </g>
</svg>
