<svg width="1176" height="1294" viewBox="0 0 1176 1294" fill="none" xmlns="http://www.w3.org/2000/svg">
<path d="M1070.84 543.445L1009.41 560.104L992.751 498.674C988.586 484.098 997.957 469.521 1011.49 465.356L1072.92 448.697L1089.58 510.127C1093.75 524.704 1085.42 539.281 1070.84 543.445Z" fill="#00A9FA"/>
<path d="M1135.39 430.998L1073.96 447.657L1050.02 359.156L1138.52 335.208L1155.18 396.639C1158.3 412.256 1149.97 426.833 1135.39 430.998Z" fill="#F39D0C"/>
<path d="M1050.02 359.155L961.515 383.102L944.856 321.672C940.691 307.095 950.062 292.519 963.598 288.354L1025.03 271.695L1050.02 359.155Z" fill="#00A9FA"/>
<path d="M1018.78 584.051L1129.15 994.279C1137.48 1023.43 1119.78 1054.67 1089.58 1061.96L228.519 1293.1H1120.82C1151.01 1293.1 1176 1268.11 1176 1237.92V639.234C1176 609.04 1151.01 584.051 1120.82 584.051H1018.78Z" fill="#F39D0C"/>
<path d="M963.598 550.734L904.25 330.002L42.1467 561.146C12.9935 569.476 -4.70675 599.67 2.58157 628.823L171.254 1259.78L1059.39 1021.35C1073.96 1017.19 1083.33 1002.61 1079.17 986.992L963.598 550.734Z" fill="#00A9FA"/>
<path d="M904.25 330.002L512.763 1169.2L946.939 1052.59L904.25 330.002Z" fill="#00BBF9"/>
<path d="M411.768 462.233L686.642 795.413L904.25 330.002L411.768 462.233Z" fill="#00A3E0"/>
<path d="M512.763 581.969L102.536 999.485L192.078 520.539L411.768 462.232L512.763 581.969Z" fill="#00BBF9"/>
<path d="M102.536 999.485H591.894L686.642 795.413L512.763 581.969L102.536 999.485Z" fill="#00A9FA"/>
<path d="M102.536 999.484L526.299 1069.24L512.763 1169.2L172.295 1259.78L102.536 999.484Z" fill="#00BBF9"/>
<path d="M102.536 999.484L512.763 1169.2L526.299 1069.24L102.536 999.484Z" fill="#00A3E0"/>
<path d="M946.939 1052.59L627.294 923.479L512.763 1169.2L946.939 1052.59Z" fill="#00A9FA"/>
<path d="M627.294 923.479L526.299 1069.25L102.536 999.486L627.294 923.479Z" fill="#00BBF9"/>
<path d="M627.294 923.479L701.218 1118.18L946.939 1052.59L627.294 923.479Z" fill="#00BBF9"/>
<path d="M172.295 1259.78L285.785 1075.49L512.764 1169.2L172.295 1259.78Z" fill="#00A9FA"/>
<path d="M882.385 715.242L924.032 673.594L904.25 330.002L767.854 619.453L882.385 715.242Z" fill="#00BBF9"/>
<path d="M946.939 1052.59L928.197 714.201L729.33 704.83L660.612 937.015L946.939 1052.59Z" fill="#00A3E0"/>
<path d="M431.551 766.259C403.439 738.147 403.439 692.335 431.551 664.223L526.299 569.475L714.754 381.02L526.299 0.986328L410.727 234.212V451.821L338.885 379.979L172.295 715.241L402.398 945.343L506.516 841.225L431.551 766.259Z" fill="#F39D0C"/>
<path d="M882.385 715.242L729.331 408.091L547.123 590.299L622.088 665.265C650.2 693.377 650.2 739.189 622.088 766.26L422.18 966.168L526.299 1070.29L882.385 715.242Z" fill="white"/>
</svg>
