<svg width="1100" height="1211" viewBox="0 0 1100 1211" fill="none" xmlns="http://www.w3.org/2000/svg">
<path d="M1001.89 507.755L943.945 523.281L928.419 465.335C924.775 451.731 932.846 437.749 946.45 434.105L1004.4 418.576L1019.93 476.525C1023.57 490.13 1015.5 504.111 1001.89 507.755Z" fill="white"/>
<path d="M1062.88 402.55L1004.93 418.076L982.808 335.498L1065.39 313.37L1080.92 371.32C1084.56 384.925 1076.49 398.906 1062.88 402.55Z" fill="white"/>
<path d="M982.295 334.96L899.717 357.087L884.188 299.137C880.543 285.533 888.614 271.551 902.218 267.907L960.168 252.382L982.295 334.96Z" fill="white"/>
<path d="M953.26 546.249L1056.31 930.856C1063.74 958.545 1047.3 987.015 1019.6 994.435L212.248 1210.76H1048.08C1076.75 1210.76 1100 1187.53 1100 1158.85V598.165C1100 569.492 1076.75 546.249 1048.08 546.249H953.26Z" fill="white"/>
<path d="M901.345 515.101L845.844 307.977L38.4905 524.303C10.8017 531.726 -5.64096 560.197 1.78241 587.89L160.333 1179.62L992.763 956.566C1006.61 952.858 1014.82 938.627 1011.12 924.78L901.345 515.101Z" fill="white"/>
<path d="M845.843 307.977L478.787 1094.29L885.826 985.223L845.843 307.977Z" fill="white"/>
<path d="M384.77 431.52L642.397 743.798L845.841 307.978L384.77 431.52Z" fill="white"/>
<path d="M479.525 544.589L94.9341 935.539L178.421 486.81L384.771 431.52L479.525 544.589Z" fill="white"/>
<path d="M94.9341 935.54H552.893L642.402 743.798L479.524 544.59L94.9341 935.54Z" fill="white"/>
<path d="M94.9341 935.542L491.434 1001.11L478.79 1094.29L160.335 1179.62L94.9341 935.542Z" fill="white"/>
<path d="M94.9341 935.541L478.79 1094.29L491.434 1001.11L94.9341 935.541Z" fill="white"/>
<path d="M885.83 985.223L586.16 864.277L478.791 1094.29L885.83 985.223Z" fill="white"/>
<path d="M586.159 864.278L491.434 1001.11L94.9341 935.538L586.159 864.278Z" fill="white"/>
<path d="M586.159 864.279L656.125 1046.77L885.829 985.224L586.159 864.279Z" fill="white"/>
<path d="M160.334 1179.62L265.917 1006.25L478.789 1094.29L160.334 1179.62Z" fill="white"/>
<path d="M825.073 669.172L864.853 629.927L845.842 307.979L718.549 579.17L825.073 669.172Z" fill="white"/>
<path d="M885.83 985.221L868.558 667.648L681.981 659.708L617.374 876.872L885.83 985.221Z" fill="white"/>
<path d="M403.161 716.74C376.885 690.468 376.885 647.869 403.161 621.598L492.281 532.478V532.482L669.136 355.623L492.277 -0.000713066L383.566 218.592V422.723L315.763 354.924L159.483 669.171L375.369 885.056L473.421 787L403.161 716.74Z" fill="white"/>
<path d="M825.071 669.169L681.776 381.035L511.305 551.507L581.422 621.62C607.685 647.884 607.697 690.463 581.446 716.739L394.341 904.03L492.278 1001.96L825.071 669.169Z" fill="white"/>
</svg>
